<svg width="24" height="24" viewBox="0 0 24 24" fill="none" xmlns="http://www.w3.org/2000/svg">
<path d="M11.9092 18.5283C11.7451 21.4329 8.43068 23.003 6.0791 21.29C3.72758 19.5769 4.20623 15.9402 6.9209 14.8936L12.2295 12.8467L11.9092 18.5283ZM17.7881 14.8936C20.5027 15.9402 20.9813 19.5769 18.6299 21.29C16.2783 23.003 12.9629 21.4329 12.7988 18.5283L12.4785 12.8467L17.7881 14.8936ZM2.19141 9.32715C3.10634 6.56541 6.71682 5.9132 8.54102 8.17969L12.1084 12.6123L6.59961 14.0391C3.78319 14.7682 1.27664 12.089 2.19141 9.32715ZM16.2031 8.17969C18.0273 5.9132 21.6378 6.5654 22.5527 9.32715C23.4675 12.0889 20.9609 14.7681 18.1445 14.0391L12.6357 12.6123L16.2031 8.17969ZM12.3711 2C15.2806 2 17.0351 5.22163 15.457 7.66602L12.3711 12.4463L9.28516 7.66602C7.70717 5.22168 9.46171 2.00013 12.3711 2Z" fill="#668CFF"/>
</svg>
