<svg width="19" height="19" viewBox="0 0 19 19" fill="none" xmlns="http://www.w3.org/2000/svg">
<path d="M4.39333 6.97241L1.49244 9.87331C1.02171 10.3378 0.647511 10.8907 0.391378 11.5004C0.135246 12.1101 0.00224495 12.7644 2.86102e-05 13.4257C-0.00218582 14.087 0.126431 14.7422 0.378471 15.3536C0.630512 15.9649 1.001 16.5204 1.4686 16.988C1.9362 17.4556 2.49169 17.8261 3.10306 18.0781C3.71444 18.3302 4.36963 18.4588 5.03092 18.4566C5.6922 18.4544 6.34652 18.3214 6.95619 18.0652C7.56586 17.8091 8.11885 17.4349 8.58331 16.9642L9.54967 15.9978C9.68033 15.8717 9.78458 15.7209 9.85633 15.5541C9.92807 15.3873 9.96588 15.2079 9.96754 15.0263C9.96921 14.8447 9.93469 14.6646 9.86601 14.4965C9.79733 14.3284 9.69587 14.1757 9.56753 14.0473C9.43919 13.9188 9.28656 13.8172 9.11854 13.7484C8.95051 13.6795 8.77046 13.6448 8.58888 13.6463C8.40731 13.6478 8.22785 13.6855 8.06098 13.757C7.8941 13.8286 7.74316 13.9327 7.61695 14.0633L6.64877 15.0306C6.22065 15.4548 5.6419 15.6922 5.03916 15.6908C4.43643 15.6894 3.85879 15.4493 3.43265 15.0231C3.00651 14.5968 2.76657 14.0191 2.76533 13.4164C2.7641 12.8136 3.00167 12.2349 3.42606 11.8069L6.32696 8.90604C6.6405 8.59236 7.03876 8.37697 7.4729 8.28629C7.90705 8.19561 8.35822 8.23356 8.77111 8.39551C8.91819 8.45385 9.05616 8.51342 9.185 8.57419L9.60801 8.77202C10.1732 9.02729 10.6081 9.13669 11.1615 8.58422C11.9564 7.78926 11.7504 7.05537 10.7813 6.38713C9.81596 5.72286 8.64842 5.41768 7.48148 5.5246C6.31454 5.63152 5.22191 6.14377 4.39333 6.97241ZM9.87239 1.49335L8.90604 2.4597C8.65681 2.7175 8.51881 3.06286 8.52176 3.42142C8.5247 3.77997 8.66836 4.12302 8.92178 4.37669C9.17521 4.63035 9.51813 4.77433 9.87668 4.77761C10.2352 4.7809 10.5807 4.64322 10.8388 4.39424L11.806 3.42789C12.0162 3.21015 12.2676 3.03644 12.5457 2.91692C12.8237 2.79739 13.1228 2.73444 13.4254 2.73172C13.728 2.72901 14.0281 2.78659 14.3083 2.90111C14.5884 3.01562 14.8429 3.18479 15.057 3.39872C15.271 3.61265 15.4403 3.86708 15.555 4.14714C15.6697 4.42721 15.7274 4.72731 15.7249 5.02993C15.7223 5.33255 15.6596 5.63164 15.5402 5.90974C15.4208 6.18784 15.2473 6.43938 15.0296 6.64968L12.1287 9.55058C11.8152 9.86426 11.4169 10.0796 10.9828 10.1703C10.5487 10.261 10.0975 10.2231 9.68459 10.0611C9.53751 10.0028 9.39955 9.9432 9.2707 9.88242L8.84769 9.68459C8.28246 9.42933 7.84669 9.31993 7.29423 9.87239C6.49926 10.6674 6.70529 11.4012 7.67439 12.0695C8.63975 12.7338 9.80728 13.0389 10.9742 12.932C12.1412 12.8251 13.2338 12.3128 14.0624 11.4842L16.9633 8.58331C17.434 8.11885 17.8082 7.56587 18.0643 6.95619C18.3205 6.34652 18.4535 5.6922 18.4557 5.03092C18.4579 4.36963 18.3293 3.71444 18.0772 3.10306C17.8252 2.49168 17.4547 1.9362 16.9871 1.4686C16.5195 1.001 15.964 0.63051 15.3526 0.378469C14.7413 0.126428 14.0861 -0.00218726 13.4248 2.814e-05C12.7635 0.00224354 12.1092 0.135246 11.4995 0.391378C10.8898 0.64751 10.3369 1.02262 9.87239 1.49335Z" fill="#668CFF"/>
</svg>
