<svg width="20" height="20" viewBox="0 0 20 20" fill="none" xmlns="http://www.w3.org/2000/svg">
<path d="M3.66197 0C5.68442 0 7.32394 1.63952 7.32394 3.66197C7.32394 5.03634 7.23691 6.60018 8.14003 7.63616L10.3235 10.1408L12.3073 11.8701C13.2885 12.7255 14.7546 12.6761 16.0563 12.6761C18.0788 12.6761 19.7183 14.3156 19.7183 16.338C19.7183 18.3605 18.0788 20 16.0563 20C14.0339 20 12.3944 18.3605 12.3944 16.338C12.3944 14.8486 12.5414 13.1194 11.5511 12.0069L10.1408 10.4225L7.60619 8.16044C6.58638 7.25029 5.02886 7.32394 3.66197 7.32394C1.63952 7.32394 0 5.68442 0 3.66197C0 1.63952 1.63952 0 3.66197 0Z" fill="#668CFF"/>
<path d="M16.0563 0C14.0338 0 12.3943 1.63952 12.3943 3.66197C12.3943 5.03634 12.4814 6.60018 11.5782 7.63616L9.39476 10.1408L7.41101 11.8701C6.42974 12.7255 4.96369 12.6761 3.66192 12.6761C1.63947 12.6761 -4.57764e-05 14.3156 -4.57764e-05 16.338C-4.57764e-05 18.3605 1.63947 20 3.66192 20C5.68438 20 7.3239 18.3605 7.3239 16.338C7.3239 14.8486 7.17687 13.1194 8.16715 12.0069L9.57742 10.4225L12.1121 8.16044C13.1319 7.25029 14.6894 7.32394 16.0563 7.32394C18.0787 7.32394 19.7183 5.68442 19.7183 3.66197C19.7183 1.63952 18.0787 0 16.0563 0Z" fill="#668CFF"/>
</svg>
