<svg width="46" height="16" viewBox="0 0 46 16" fill="none" xmlns="http://www.w3.org/2000/svg">
<path d="M9.67805 8.81958V7.2586L15.0083 7.2586L16 8.81958H9.67805Z" fill="#668CFF"/>
<path d="M8.81951 16H7.25854V8.81951H0V7.25854H7.25854V0H8.81951V16Z" fill="#2A2A35"/>
<path d="M35.4139 10.6598C35.4624 11.5206 35.6667 12.2195 36.0268 12.7566C36.7124 13.762 37.9209 14.2647 39.6523 14.2647C40.428 14.2647 41.1344 14.1545 41.7715 13.9342C43.0043 13.5072 43.6207 12.7428 43.6207 11.6411C43.6207 10.8147 43.361 10.226 42.8415 9.87476C42.3152 9.53045 41.4911 9.2309 40.3691 8.97611L38.3019 8.5113C36.9514 8.20831 35.9957 7.87433 35.4347 7.50936C34.4651 6.87583 33.9803 5.92899 33.9803 4.66882C33.9803 3.30536 34.4547 2.18636 35.4035 1.31181C36.3523 0.437271 37.6959 0 39.4342 0C41.034 0 42.3914 0.385625 43.5064 1.15688C44.6283 1.92124 45.1893 3.14698 45.1893 4.83409H43.2467C43.1428 4.02152 42.9212 3.39832 42.5818 2.96449C41.9516 2.17258 40.8816 1.77663 39.3718 1.77663C38.153 1.77663 37.2769 2.03142 36.7436 2.54099C36.2103 3.05057 35.9437 3.64278 35.9437 4.31762C35.9437 5.06133 36.2554 5.60534 36.8787 5.94965C37.2873 6.17 38.2118 6.44545 39.6523 6.77598L41.7923 7.26146C42.8242 7.49559 43.6207 7.8158 44.1816 8.22208C45.1512 8.93135 45.636 9.96084 45.636 11.3105C45.636 12.9907 45.0196 14.1924 43.7869 14.9154C42.5611 15.6385 41.1344 16 39.5069 16C37.6093 16 36.1238 15.518 35.0503 14.5539C33.9769 13.5967 33.4505 12.2987 33.4713 10.6598H35.4139Z" fill="#2A2A35"/>
<path d="M28.4645 9.37163L26.1478 2.65339L23.6856 9.37163H28.4645ZM25.0673 0.396729H27.4048L32.9421 15.6033H30.6773L29.1294 11.0486H23.0934L21.4416 15.6033H19.3223L25.0673 0.396729Z" fill="#2A2A35"/>
</svg>
