<svg width="162" height="60" viewBox="0 0 162 60" fill="none" xmlns="http://www.w3.org/2000/svg">
<path d="M35.5477 32.8063V27.0728L55.1259 27.0728L58.7686 32.8063H35.5477Z" fill="#668CFF"/>
<path d="M32.3945 59.1806H26.661V32.8063H0V27.0727H26.661V0.411766H32.3945V59.1806Z" fill="#2A2A35"/>
<path d="M98.1512 34.9608L89.4336 10.662L80.1688 34.9608H98.1512ZM85.368 2.49998H94.1638L115 57.5H106.478L100.653 41.0262H77.9405L71.7248 57.5H63.75L85.368 2.49998Z" fill="#2A2A35"/>
<path d="M123.438 39.9742C123.617 43.2021 124.373 45.8231 125.705 47.8373C128.241 51.6075 132.712 53.4926 139.116 53.4926C141.985 53.4926 144.598 53.0794 146.955 52.2531C151.515 50.652 153.795 47.7857 153.795 43.654C153.795 40.5552 152.834 38.3473 150.913 37.0303C148.966 35.7392 145.918 34.6159 141.768 33.6604L134.121 31.9174C129.125 30.7811 125.59 29.5287 123.515 28.1601C119.928 25.7844 118.135 22.2337 118.135 17.5081C118.135 12.3951 119.89 8.19884 123.4 4.9193C126.909 1.63977 131.879 0 138.309 0C144.227 0 149.248 1.44609 153.372 4.33828C157.523 7.20465 159.598 11.8012 159.598 18.1278H152.412C152.028 15.0807 151.208 12.7437 149.952 11.1168C147.621 8.14719 143.663 6.66236 138.079 6.66236C133.57 6.66236 130.329 7.61782 128.357 9.52873C126.384 11.4396 125.398 13.6604 125.398 16.1911C125.398 18.98 126.551 21.02 128.856 22.3112C130.368 23.1375 133.788 24.1704 139.116 25.4099L147.032 27.2305C150.849 28.1085 153.795 29.3092 155.87 30.8328C159.457 33.4926 161.25 37.3531 161.25 42.4145C161.25 48.7153 158.97 53.2214 154.41 55.9329C149.876 58.6443 144.598 60 138.578 60C131.559 60 126.064 58.1924 122.093 54.5771C118.122 50.9877 116.175 46.1201 116.252 39.9742H123.438Z" fill="#2A2A35"/>
</svg>
